<svg width="37" height="36" viewBox="0 0 37 36" fill="none" xmlns="http://www.w3.org/2000/svg">
<path d="M14.0002 31.5H8.00024C6.35024 31.5 5.00024 30.15 5.00024 28.5V7.5C5.00024 5.85 6.35024 4.5 8.00024 4.5H14.0002C15.6502 4.5 17.0002 5.85 17.0002 7.5V28.5C17.0002 30.15 15.6502 31.5 14.0002 31.5ZM23.0002 31.5H29.0002C30.6502 31.5 32.0002 30.15 32.0002 28.5V21C32.0002 19.35 30.6502 18 29.0002 18H23.0002C21.3502 18 20.0002 19.35 20.0002 21V28.5C20.0002 30.15 21.3502 31.5 23.0002 31.5ZM32.0002 12V7.5C32.0002 5.85 30.6502 4.5 29.0002 4.5H23.0002C21.3502 4.5 20.0002 5.85 20.0002 7.5V12C20.0002 13.65 21.3502 15 23.0002 15H29.0002C30.6502 15 32.0002 13.65 32.0002 12Z" fill="#8133F1"/>
</svg>
