<svg width="29" height="31" viewBox="0 0 29 31" fill="none" xmlns="http://www.w3.org/2000/svg">
<path d="M12 30.5H3C2.175 30.5 1.4685 30.2065 0.8805 29.6195C0.2935 29.0315 0 28.325 0 27.5V6.5C0 5.675 0.2935 4.9685 0.8805 4.3805C1.4685 3.7935 2.175 3.5 3 3.5H9.2625C9.5375 2.625 10.075 1.906 10.875 1.343C11.675 0.781 12.55 0.5 13.5 0.5C14.5 0.5 15.394 0.781 16.182 1.343C16.969 1.906 17.5 2.625 17.775 3.5H24C24.825 3.5 25.5315 3.7935 26.1195 4.3805C26.7065 4.9685 27 5.675 27 6.5V14H24V6.5H21V8C21 8.825 20.7065 9.531 20.1195 10.118C19.5315 10.706 18.825 11 18 11H9C8.175 11 7.469 10.706 6.882 10.118C6.294 9.531 6 8.825 6 8V6.5H3V27.5H12V30.5ZM18.75 24.6875L26.175 17.2625C26.45 16.9875 26.8 16.85 27.225 16.85C27.65 16.85 28 16.9875 28.275 17.2625C28.55 17.5375 28.6875 17.8875 28.6875 18.3125C28.6875 18.7375 28.55 19.0875 28.275 19.3625L19.8 27.8375C19.5 28.1375 19.15 28.2875 18.75 28.2875C18.35 28.2875 18 28.1375 17.7 27.8375L13.425 23.5625C13.15 23.2875 13.0125 22.9375 13.0125 22.5125C13.0125 22.0875 13.15 21.7375 13.425 21.4625C13.7 21.1875 14.05 21.05 14.475 21.05C14.9 21.05 15.25 21.1875 15.525 21.4625L18.75 24.6875ZM13.5 6.5C13.925 6.5 14.2815 6.356 14.5695 6.068C14.8565 5.781 15 5.425 15 5C15 4.575 14.8565 4.2185 14.5695 3.9305C14.2815 3.6435 13.925 3.5 13.5 3.5C13.075 3.5 12.719 3.6435 12.432 3.9305C12.144 4.2185 12 4.575 12 5C12 5.425 12.144 5.781 12.432 6.068C12.719 6.356 13.075 6.5 13.5 6.5Z" fill="#8133F1"/>
</svg>
