<svg width="27" height="32" viewBox="0 0 27 32" fill="none" xmlns="http://www.w3.org/2000/svg">
<path d="M13.5 31H3C2.60218 31 2.22064 30.842 1.93934 30.5607C1.65804 30.2794 1.5 29.8978 1.5 29.5V2.5C1.5 2.10218 1.65804 1.72064 1.93934 1.43934C2.22064 1.15804 2.60218 1 3 1H24C24.3978 1 24.7794 1.15804 25.0607 1.43934C25.342 1.72064 25.5 2.10218 25.5 2.5V16M22.125 31V21.25" stroke="#8133F1" stroke-width="1.96951" stroke-linecap="round" stroke-linejoin="round"/>
<path d="M18.75 23.875L19.875 22.75L22.125 20.5L24.375 22.75L25.5 23.875" stroke="#8133F1" stroke-width="1.96951" stroke-linecap="round" stroke-linejoin="round"/>
<path d="M7.5 10H19.5M7.5 16H13.5" stroke="#8133F1" stroke-width="1.96951" stroke-linecap="round"/>
</svg>
