<svg width="31" height="30" viewBox="0 0 31 30" fill="none" xmlns="http://www.w3.org/2000/svg">
<path fill-rule="evenodd" clip-rule="evenodd" d="M15.5 28.5C22.9557 28.5 29 22.4557 29 15C29 7.54425 22.9557 1.5 15.5 1.5C8.04425 1.5 2 7.54425 2 15C2 22.4557 8.04425 28.5 15.5 28.5ZM15.5 30C23.7845 30 30.5 23.2845 30.5 15C30.5 6.7155 23.7845 0 15.5 0C7.2155 0 0.5 6.7155 0.5 15C0.5 23.2845 7.2155 30 15.5 30Z" fill="#8133F1"/>
<path d="M6.5 23.7223C6.5 22.9476 7.079 22.2928 7.85 22.2073C13.6363 21.5668 17.39 21.6246 23.1635 22.2216C23.4518 22.2519 23.7251 22.3654 23.9499 22.5485C24.1747 22.7315 24.3414 22.976 24.4295 23.2522C24.5176 23.5283 24.5234 23.8242 24.4462 24.1036C24.3689 24.383 24.212 24.6339 23.9945 24.8256C17.1808 30.7648 13.2868 30.6831 6.98 24.8316C6.6725 24.5466 6.5 24.1416 6.5 23.7231V23.7223Z" fill="#8133F1"/>
<path fill-rule="evenodd" clip-rule="evenodd" d="M23.0863 22.9675C17.3585 22.375 13.6588 22.3195 7.93175 22.9532C7.74324 22.9752 7.56945 23.0659 7.44365 23.208C7.31786 23.3501 7.24891 23.5337 7.25 23.7235C7.25 23.938 7.33925 24.1412 7.49 24.2822C10.616 27.1817 12.9845 28.492 15.2998 28.5002C17.6233 28.5085 20.1193 27.2087 23.5018 24.2612C23.6092 24.1656 23.6866 24.0408 23.7244 23.902C23.7623 23.7632 23.759 23.6164 23.715 23.4794C23.671 23.3425 23.5881 23.2212 23.4765 23.1305C23.3649 23.0397 23.2293 22.9833 23.0863 22.9682V22.9675ZM7.7675 21.4622C13.6145 20.815 17.423 20.8735 23.2415 21.4757C23.6752 21.521 24.0863 21.6917 24.4245 21.967C24.7627 22.2424 25.0133 22.6103 25.1455 23.0259C25.2778 23.4414 25.2861 23.8865 25.1693 24.3066C25.0525 24.7268 24.8157 25.1038 24.488 25.3915C21.0568 28.3825 18.1993 30.0115 15.2953 30.0002C12.383 29.9897 9.6515 28.333 6.47075 25.3817C6.24302 25.1696 6.06147 24.9128 5.93746 24.6273C5.81345 24.3419 5.74963 24.0339 5.75 23.7227C5.74891 23.1635 5.95416 22.6236 6.32643 22.2064C6.6987 21.7891 7.21182 21.5239 7.7675 21.4615V21.4622Z" fill="#8133F1"/>
<path d="M21.5 12C21.5 13.5913 20.8679 15.1174 19.7426 16.2426C18.6174 17.3679 17.0913 18 15.5 18C13.9087 18 12.3826 17.3679 11.2574 16.2426C10.1321 15.1174 9.5 13.5913 9.5 12C9.5 10.4087 10.1321 8.88258 11.2574 7.75736C12.3826 6.63214 13.9087 6 15.5 6C17.0913 6 18.6174 6.63214 19.7426 7.75736C20.8679 8.88258 21.5 10.4087 21.5 12Z" fill="#8133F1"/>
<path fill-rule="evenodd" clip-rule="evenodd" d="M15.5 16.5C16.6935 16.5 17.8381 16.0259 18.682 15.182C19.5259 14.3381 20 13.1935 20 12C20 10.8065 19.5259 9.66193 18.682 8.81802C17.8381 7.97411 16.6935 7.5 15.5 7.5C14.3065 7.5 13.1619 7.97411 12.318 8.81802C11.4741 9.66193 11 10.8065 11 12C11 13.1935 11.4741 14.3381 12.318 15.182C13.1619 16.0259 14.3065 16.5 15.5 16.5ZM15.5 18C17.0913 18 18.6174 17.3679 19.7426 16.2426C20.8679 15.1174 21.5 13.5913 21.5 12C21.5 10.4087 20.8679 8.88258 19.7426 7.75736C18.6174 6.63214 17.0913 6 15.5 6C13.9087 6 12.3826 6.63214 11.2574 7.75736C10.1321 8.88258 9.5 10.4087 9.5 12C9.5 13.5913 10.1321 15.1174 11.2574 16.2426C12.3826 17.3679 13.9087 18 15.5 18Z" fill="#8133F1"/>
</svg>
