<svg width="19" height="28" viewBox="0 0 19 28" fill="none" xmlns="http://www.w3.org/2000/svg">
<path d="M12.725 27.5C12.525 27.5 12.3315 27.4625 12.1445 27.3875C11.9565 27.3125 11.7875 27.2 11.6375 27.05L2.6 17.6375C2.425 17.4625 2.2815 17.225 2.1695 16.925C2.0565 16.625 2 16.35 2 16.1C2 15.525 2.206 15.031 2.618 14.618C3.031 14.206 3.525 14 4.1 14H7.25C8.575 14 9.719 13.5685 10.682 12.7055C11.644 11.8435 12.225 10.775 12.425 9.5H2C1.575 9.5 1.2185 9.356 0.9305 9.068C0.6435 8.781 0.5 8.425 0.5 8C0.5 7.575 0.6435 7.2185 0.9305 6.9305C1.2185 6.6435 1.575 6.5 2 6.5H11.975C11.55 5.625 10.919 4.906 10.082 4.343C9.244 3.781 8.3 3.5 7.25 3.5H2C1.575 3.5 1.2185 3.356 0.9305 3.068C0.6435 2.781 0.5 2.425 0.5 2C0.5 1.575 0.6435 1.2185 0.9305 0.9305C1.2185 0.6435 1.575 0.5 2 0.5H17C17.425 0.5 17.781 0.6435 18.068 0.9305C18.356 1.2185 18.5 1.575 18.5 2C18.5 2.425 18.356 2.781 18.068 3.068C17.781 3.356 17.425 3.5 17 3.5H13.625C13.975 3.925 14.2875 4.3875 14.5625 4.8875C14.8375 5.3875 15.05 5.925 15.2 6.5H17C17.425 6.5 17.781 6.6435 18.068 6.9305C18.356 7.2185 18.5 7.575 18.5 8C18.5 8.425 18.356 8.781 18.068 9.068C17.781 9.356 17.425 9.5 17 9.5H15.4625C15.2625 11.625 14.3875 13.406 12.8375 14.843C11.2875 16.281 9.425 17 7.25 17H6.1625L13.8125 24.95C14.2625 25.425 14.356 25.9685 14.093 26.5805C13.831 27.1935 13.375 27.5 12.725 27.5Z" fill="#8133F1"/>
</svg>
