<svg width="31" height="30" viewBox="0 0 31 30" fill="none" xmlns="http://www.w3.org/2000/svg">
<path d="M11.3748 30L10.7748 25.2C10.4498 25.075 10.1438 24.925 9.8568 24.75C9.5688 24.575 9.2873 24.3875 9.0123 24.1875L4.5498 26.0625L0.424805 18.9375L4.2873 16.0125C4.2623 15.8375 4.2498 15.6685 4.2498 15.5055V14.493C4.2498 14.331 4.2623 14.1625 4.2873 13.9875L0.424805 11.0625L4.5498 3.9375L9.0123 5.8125C9.2873 5.6125 9.5748 5.425 9.8748 5.25C10.1748 5.075 10.4748 4.925 10.7748 4.8L11.3748 0H19.6248L20.2248 4.8C20.5498 4.925 20.8563 5.075 21.1443 5.25C21.4313 5.425 21.7123 5.6125 21.9873 5.8125L26.4498 3.9375L30.5748 11.0625L26.7123 13.9875C26.7373 14.1625 26.7498 14.331 26.7498 14.493V15.5055C26.7498 15.6685 26.7248 15.8375 26.6748 16.0125L30.5373 18.9375L26.4123 26.0625L21.9873 24.1875C21.7123 24.3875 21.4248 24.575 21.1248 24.75C20.8248 24.925 20.5248 25.075 20.2248 25.2L19.6248 30H11.3748ZM15.5748 20.25C17.0248 20.25 18.2623 19.7375 19.2873 18.7125C20.3123 17.6875 20.8248 16.45 20.8248 15C20.8248 13.55 20.3123 12.3125 19.2873 11.2875C18.2623 10.2625 17.0248 9.75 15.5748 9.75C14.0998 9.75 12.8558 10.2625 11.8428 11.2875C10.8308 12.3125 10.3248 13.55 10.3248 15C10.3248 16.45 10.8308 17.6875 11.8428 18.7125C12.8558 19.7375 14.0998 20.25 15.5748 20.25Z" fill="#8133F1"/>
</svg>
