<svg width="31" height="27" viewBox="0 0 31 27" fill="none" xmlns="http://www.w3.org/2000/svg">
<path d="M26.15 0H12.65C11.5759 0 10.5457 0.426695 9.78622 1.18622C9.0267 1.94574 8.6 2.97587 8.6 4.05V13.5C8.6 14.5741 9.0267 15.6043 9.78622 16.3638C10.5457 17.1233 11.5759 17.55 12.65 17.55H26.15C27.2241 17.55 28.2543 17.1233 29.0138 16.3638C29.7733 15.6043 30.2 14.5741 30.2 13.5V4.05C30.2 2.97587 29.7733 1.94574 29.0138 1.18622C28.2543 0.426695 27.2241 0 26.15 0ZM27.5 13.5C27.5 13.858 27.3578 14.2014 27.1046 14.4546C26.8514 14.7078 26.508 14.85 26.15 14.85H12.65C12.292 14.85 11.9486 14.7078 11.6954 14.4546C11.4422 14.2014 11.3 13.858 11.3 13.5V4.05C11.3 3.69196 11.4422 3.34858 11.6954 3.09541C11.9486 2.84223 12.292 2.7 12.65 2.7H26.15C26.508 2.7 26.8514 2.84223 27.1046 3.09541C27.3578 3.34858 27.5 3.69196 27.5 4.05V13.5ZM22.775 8.1C22.2752 8.10169 21.794 8.28938 21.425 8.6265C21.1347 8.36264 20.774 8.18879 20.3868 8.12606C19.9995 8.06333 19.6024 8.11443 19.2437 8.27315C18.8849 8.43186 18.58 8.69137 18.366 9.02012C18.1519 9.34887 18.038 9.73271 18.038 10.125C18.038 10.5173 18.1519 10.9011 18.366 11.2299C18.58 11.5586 18.8849 11.8181 19.2437 11.9769C19.6024 12.1356 19.9995 12.1867 20.3868 12.1239C20.774 12.0612 21.1347 11.8874 21.425 11.6235C21.6688 11.8451 21.963 12.0038 22.282 12.086C22.601 12.1681 22.9353 12.1712 23.2557 12.095C23.5762 12.0187 23.8733 11.8654 24.1211 11.6484C24.3689 11.4313 24.5601 11.1571 24.6779 10.8495C24.7958 10.5418 24.8368 10.2101 24.7975 9.88303C24.7581 9.55595 24.6396 9.24342 24.4521 8.97253C24.2646 8.70165 24.0139 8.4806 23.7216 8.32855C23.4294 8.1765 23.1044 8.09805 22.775 8.1ZM20.75 20.25C20.392 20.25 20.0486 20.3922 19.7954 20.6454C19.5422 20.8986 19.4 21.242 19.4 21.6V22.95C19.4 23.308 19.2578 23.6514 19.0046 23.9046C18.7514 24.1578 18.408 24.3 18.05 24.3H4.55C4.19196 24.3 3.84858 24.1578 3.59541 23.9046C3.34223 23.6514 3.2 23.308 3.2 22.95V17.55H4.55C4.90804 17.55 5.25142 17.4078 5.50459 17.1546C5.75777 16.9014 5.9 16.558 5.9 16.2C5.9 15.842 5.75777 15.4986 5.50459 15.2454C5.25142 14.9922 4.90804 14.85 4.55 14.85H3.2V13.5C3.2 13.142 3.34223 12.7986 3.59541 12.5454C3.84858 12.2922 4.19196 12.15 4.55 12.15C4.90804 12.15 5.25142 12.0078 5.50459 11.7546C5.75777 11.5014 5.9 11.158 5.9 10.8C5.9 10.442 5.75777 10.0986 5.50459 9.84541C5.25142 9.59223 4.90804 9.45 4.55 9.45C3.47587 9.45 2.44574 9.87669 1.68622 10.6362C0.926695 11.3957 0.5 12.4259 0.5 13.5V22.95C0.5 24.0241 0.926695 25.0543 1.68622 25.8138C2.44574 26.5733 3.47587 27 4.55 27H18.05C19.1241 27 20.1543 26.5733 20.9138 25.8138C21.6733 25.0543 22.1 24.0241 22.1 22.95V21.6C22.1 21.242 21.9578 20.8986 21.7046 20.6454C21.4514 20.3922 21.108 20.25 20.75 20.25ZM7.25 21.6H8.6C8.95804 21.6 9.30142 21.4578 9.55459 21.2046C9.80777 20.9514 9.95 20.608 9.95 20.25C9.95 19.892 9.80777 19.5486 9.55459 19.2954C9.30142 19.0422 8.95804 18.9 8.6 18.9H7.25C6.89196 18.9 6.54858 19.0422 6.29541 19.2954C6.04223 19.5486 5.9 19.892 5.9 20.25C5.9 20.608 6.04223 20.9514 6.29541 21.2046C6.54858 21.4578 6.89196 21.6 7.25 21.6Z" fill="#8133F1"/>
</svg>
