<svg width="31" height="23" viewBox="0 0 31 23" fill="none" xmlns="http://www.w3.org/2000/svg">
<path d="M21.5 19.5001V22.5001H0.5V19.5001C0.5 19.5001 0.5 13.5001 11 13.5001C21.5 13.5001 21.5 19.5001 21.5 19.5001ZM16.25 5.25008C16.25 4.21173 15.9421 3.19669 15.3652 2.33334C14.7883 1.46998 13.9684 0.797072 13.0091 0.399712C12.0498 0.00235149 10.9942 -0.101616 9.97577 0.100956C8.95737 0.303529 8.02192 0.803543 7.28769 1.53777C6.55346 2.27199 6.05345 3.20745 5.85088 4.22585C5.6483 5.24426 5.75227 6.29985 6.14963 7.25917C6.54699 8.21848 7.2199 9.03842 8.08326 9.61529C8.94661 10.1922 9.96165 10.5001 11 10.5001C12.3924 10.5001 13.7277 9.94695 14.7123 8.96239C15.6969 7.97782 16.25 6.64247 16.25 5.25008ZM21.41 13.5001C22.3321 14.2137 23.0867 15.1207 23.6205 16.1573C24.1544 17.194 24.4546 18.335 24.5 19.5001V22.5001H30.5V19.5001C30.5 19.5001 30.5 14.0551 21.41 13.5001ZM20 7.88685e-05C18.9675 -0.0056702 17.9578 0.303012 17.105 0.885079C18.0162 2.15818 18.5061 3.68451 18.5061 5.25008C18.5061 6.81565 18.0162 8.34197 17.105 9.61508C17.9578 10.1971 18.9675 10.5058 20 10.5001C21.3924 10.5001 22.7277 9.94695 23.7123 8.96239C24.6969 7.97782 25.25 6.64247 25.25 5.25008C25.25 3.85769 24.6969 2.52233 23.7123 1.53777C22.7277 0.553203 21.3924 7.88685e-05 20 7.88685e-05Z" fill="#8133F1"/>
</svg>
