<svg width="28" height="32" viewBox="0 0 28 32" fill="none" xmlns="http://www.w3.org/2000/svg">
<path d="M26.4258 4.75H19.6758V3.0625C19.6758 2.31658 19.3795 1.60121 18.852 1.07376C18.3246 0.546316 17.6092 0.25 16.8633 0.25H11.2383C10.4924 0.25 9.77699 0.546316 9.24954 1.07376C8.7221 1.60121 8.42578 2.31658 8.42578 3.0625V4.75H1.67578C1.37741 4.75 1.09126 4.86853 0.880286 5.0795C0.669308 5.29048 0.550781 5.57663 0.550781 5.875C0.550781 6.17337 0.669308 6.45952 0.880286 6.6705C1.09126 6.88147 1.37741 7 1.67578 7H2.87109L4.20703 28.4397C4.30687 30.3276 5.75391 31.75 7.58203 31.75H20.5195C22.3568 31.75 23.775 30.3592 23.8945 28.4453L25.2305 7H26.4258C26.7241 7 27.0103 6.88147 27.2213 6.6705C27.4323 6.45952 27.5508 6.17337 27.5508 5.875C27.5508 5.57663 27.4323 5.29048 27.2213 5.0795C27.0103 4.86853 26.7241 4.75 26.4258 4.75ZM9.59086 27.25H9.55078C9.25923 27.2502 8.97899 27.1372 8.76913 26.9348C8.55926 26.7324 8.43617 26.4564 8.42578 26.1651L7.86328 10.4151C7.85265 10.1167 7.96098 9.82634 8.16445 9.60784C8.36791 9.38935 8.64983 9.26063 8.9482 9.25C9.24657 9.23937 9.53694 9.3477 9.75544 9.55116C9.97393 9.75463 10.1027 10.0366 10.1133 10.3349L10.6758 26.0849C10.6811 26.2327 10.6573 26.38 10.6057 26.5186C10.554 26.6571 10.4756 26.7841 10.3748 26.8924C10.2741 27.0006 10.153 27.0878 10.0184 27.1492C9.88392 27.2106 9.73863 27.2448 9.59086 27.25ZM15.1758 26.125C15.1758 26.4234 15.0573 26.7095 14.8463 26.9205C14.6353 27.1315 14.3491 27.25 14.0508 27.25C13.7524 27.25 13.4663 27.1315 13.2553 26.9205C13.0443 26.7095 12.9258 26.4234 12.9258 26.125V10.375C12.9258 10.0766 13.0443 9.79048 13.2553 9.5795C13.4663 9.36853 13.7524 9.25 14.0508 9.25C14.3491 9.25 14.6353 9.36853 14.8463 9.5795C15.0573 9.79048 15.1758 10.0766 15.1758 10.375V26.125ZM17.4258 4.75H10.6758V3.0625C10.6749 2.9884 10.6889 2.91487 10.7169 2.84624C10.7448 2.77761 10.7862 2.71527 10.8386 2.66286C10.891 2.61046 10.9534 2.56906 11.022 2.54109C11.0907 2.51312 11.1642 2.49915 11.2383 2.5H16.8633C16.9374 2.49915 17.0109 2.51312 17.0795 2.54109C17.1482 2.56906 17.2105 2.61046 17.2629 2.66286C17.3153 2.71527 17.3567 2.77761 17.3847 2.84624C17.4127 2.91487 17.4266 2.9884 17.4258 3.0625V4.75ZM19.6758 26.1651C19.6654 26.4564 19.5423 26.7324 19.3324 26.9348C19.1226 27.1372 18.8423 27.2502 18.5508 27.25H18.51C18.3623 27.2447 18.2171 27.2104 18.0826 27.149C17.9482 27.0876 17.8272 27.0003 17.7265 26.8921C17.6258 26.7839 17.5474 26.6569 17.4958 26.5184C17.4442 26.3799 17.4204 26.2326 17.4258 26.0849L17.9883 10.3349C17.9935 10.1872 18.0279 10.0419 18.0893 9.90745C18.1507 9.77298 18.2379 9.65191 18.3461 9.55116C18.4543 9.45042 18.5813 9.37197 18.7198 9.3203C18.8583 9.26862 19.0056 9.24474 19.1534 9.25C19.3011 9.25526 19.4464 9.28957 19.5808 9.35097C19.7153 9.41237 19.8364 9.49966 19.9371 9.60784C20.0379 9.71603 20.1163 9.843 20.168 9.98151C20.2197 10.12 20.2435 10.2673 20.2383 10.4151L19.6758 26.1651Z" fill="#0F0923"/>
</svg>
