<svg width="21" height="15" viewBox="0 0 21 15" fill="none" xmlns="http://www.w3.org/2000/svg">
<path d="M14.554 13.0001V15.0001H0.220703V13.0001C0.220703 13.0001 0.220703 9.00005 7.38735 9.00005C14.554 9.00005 14.554 13.0001 14.554 13.0001ZM10.9707 3.50005C10.9707 2.80782 10.7605 2.13113 10.3668 1.55556C9.97304 0.979985 9.4134 0.531381 8.75863 0.266474C8.10387 0.00156766 7.38338 -0.067744 6.68828 0.0673043C5.99318 0.202353 5.3547 0.535695 4.85356 1.02518C4.35242 1.51466 4.01114 2.1383 3.87288 2.81724C3.73462 3.49617 3.80558 4.1999 4.07679 4.83944C4.34801 5.47899 4.80729 6.02561 5.39656 6.4102C5.98584 6.79478 6.67864 7.00005 7.38735 7.00005C8.33771 7.00005 9.24914 6.6313 9.92115 5.97493C10.5932 5.31855 10.9707 4.42831 10.9707 3.50005ZM14.4926 9.00005C15.122 9.4758 15.637 10.0805 16.0013 10.7716C16.3657 11.4626 16.5706 12.2233 16.6016 13.0001V15.0001H20.6968V13.0001C20.6968 13.0001 20.6968 9.37005 14.4926 9.00005ZM13.5302 5.2579e-05C12.8255 -0.00378014 12.1363 0.202008 11.5542 0.590053C12.1762 1.43879 12.5105 2.45634 12.5105 3.50005C12.5105 4.54377 12.1762 5.56132 11.5542 6.41005C12.1363 6.7981 12.8255 7.00389 13.5302 7.00005C14.4806 7.00005 15.392 6.6313 16.064 5.97493C16.736 5.31855 17.1135 4.42831 17.1135 3.50005C17.1135 2.57179 16.736 1.68156 16.064 1.02518C15.392 0.368802 14.4806 5.2579e-05 13.5302 5.2579e-05Z" fill="#46B2F9"/>
</svg>
