<svg width="42" height="42" viewBox="0 0 42 42" fill="none" xmlns="http://www.w3.org/2000/svg">
<g clip-path="url(#clip0_928_828)">
<path d="M35.4375 30.7781C35.4375 38.7188 29.0063 38.7188 21 38.7188C12.9938 38.7188 6.5625 38.7188 6.5625 30.7781C6.5625 22.8375 13.0594 9.84375 21 9.84375C28.9406 9.84375 35.4375 22.7719 35.4375 30.7781Z" fill="#DBB471"/>
<path opacity="0.5" d="M35.4375 30.7781C35.4375 28.0875 34.7156 24.8063 33.4031 21.6562C33.6656 23.6906 33.1406 27.3 26.9062 28.6781C18.0468 30.5813 22.6406 33.075 19.1625 33.4031C16.2093 33.6656 8.33433 32.4844 6.75933 28.0219C6.62808 29.0063 6.49683 29.925 6.49683 30.8438C6.56245 38.7188 13.0593 38.7188 21 38.7188C28.9406 38.7188 35.4375 38.7188 35.4375 30.7781Z" fill="#89664C"/>
<path d="M24.8718 26.9725C24.6093 25.66 23.4936 25.2662 22.3124 25.2006V23.3631C22.6405 23.4943 23.0343 23.6912 23.2968 23.8881C23.8218 24.2162 24.3468 23.3631 23.8218 23.035C23.3624 22.7725 22.8374 22.51 22.3124 22.3131V20.1475C22.3124 19.4912 21.328 19.4912 21.328 20.1475V22.0506C20.803 21.985 20.278 21.985 19.753 22.0506C19.6874 21.5912 19.5561 21.1318 19.4249 20.6725C19.2936 20.0162 18.3093 20.2787 18.5061 20.935C18.6374 21.3943 18.703 21.8537 18.8343 22.3131C18.7686 22.3131 18.7686 22.3131 18.703 22.3787C17.3905 22.9037 16.5374 24.2162 17.5218 25.4631C17.9811 26.0537 18.5718 26.2506 19.228 26.3818C19.2936 27.235 19.2936 28.0881 19.2936 28.9412C18.8343 28.6787 18.4405 28.285 18.1124 27.9568C17.653 27.4975 16.9968 28.2193 17.3905 28.6787C17.9811 29.335 18.6374 29.7943 19.2936 30.1225C19.2936 30.8443 19.3593 31.5662 19.4249 32.2881C19.4905 32.9443 20.4749 32.9443 20.4093 32.2881C20.3436 31.6318 20.278 31.0412 20.278 30.385C20.6718 30.4506 21.0655 30.4506 21.4593 30.4506C21.5249 31.1068 21.5905 31.7631 21.6561 32.485C21.7218 33.1412 22.7061 33.1412 22.6405 32.485C22.5749 31.7631 22.5093 31.0412 22.4436 30.2537C23.8874 29.7287 25.1999 28.6131 24.8718 26.9725ZM21.328 23.035V25.2006C20.9999 25.2006 20.7374 25.2662 20.4749 25.2662H20.1468L19.9499 22.9037C20.4093 22.9037 20.8686 22.9693 21.328 23.035ZM18.9655 25.135C18.703 25.0693 18.4405 24.8725 18.178 24.6756C17.5874 24.085 18.4405 23.56 18.9655 23.2975C19.0311 23.9537 19.0968 24.5443 19.1624 25.2006C19.0968 25.2006 19.0311 25.2006 18.9655 25.135ZM21.1311 29.335C20.803 29.4006 20.5405 29.335 20.278 29.2693C20.2124 28.285 20.2124 27.3006 20.2124 26.2506C20.6061 26.2506 20.9999 26.185 21.3936 26.185C21.3936 27.235 21.4593 28.2193 21.4593 29.2693C21.328 29.335 21.2624 29.335 21.1311 29.335ZM23.2968 28.6131C23.0343 28.81 22.7061 28.9412 22.4436 29.0725C22.378 28.0881 22.378 27.1693 22.378 26.185H22.7061C23.953 26.4475 24.2811 27.8256 23.2968 28.6131Z" fill="#89664C"/>
<path d="M22.3124 36.0938H20.803V38.7188L26.9061 42L40.6874 37.7344V35.4375L35.6342 32.4844L22.3124 36.0938Z" fill="#699635"/>
<path d="M21 34.5844C21 34.5844 22.575 37.1437 27.0375 39.375C27.0375 39.375 33.9938 39.0469 40.6875 34.5844C40.6875 34.5844 36.8156 32.6812 35.7 30.1875C35.7 30.1875 33.075 33.8625 21 34.5844Z" fill="#83BF4F"/>
<path d="M18.0469 36.0275L19.4907 35.9619L19.6875 38.39L13.9782 41.9994L0.262549 39.0463L0.0656738 36.8807L4.72505 33.665L18.0469 36.0275Z" fill="#699635"/>
<path d="M19.1625 34.5187C19.1625 34.5187 17.7844 37.0781 13.65 39.5063C13.65 39.5063 6.89062 39.7031 0 36.0938C0 36.0938 3.675 33.9937 4.52813 31.5C4.52813 31.5 7.41563 34.7812 19.1625 34.5187Z" fill="#83BF4F"/>
<path d="M15.8814 35.2408C15.8814 35.2408 15.6845 35.7658 16.6033 35.8314L14.1751 37.8658C14.1751 37.8658 12.7314 37.7345 12.4033 38.7189C12.4033 38.7189 6.49702 38.0627 2.69077 36.3564C2.69077 36.3564 3.47827 35.7658 2.4939 35.372C2.4939 35.372 3.60952 34.5845 3.87202 33.8627C3.87202 33.8627 4.92202 33.9939 5.25015 33.2064C5.3814 33.1408 9.3189 35.5033 15.8814 35.2408V35.2408Z" stroke="#699635" stroke-width="0.492188" stroke-miterlimit="10"/>
<path d="M5.77495 36.1594C6.46358 36.1594 7.02183 35.7774 7.02183 35.3062C7.02183 34.8351 6.46358 34.4531 5.77495 34.4531C5.08632 34.4531 4.52808 34.8351 4.52808 35.3062C4.52808 35.7774 5.08632 36.1594 5.77495 36.1594Z" fill="#699635"/>
<path d="M12.4689 34.2564C12.4689 34.2564 10.9595 36.2252 7.67827 38.9158L7.87515 40.6877L5.57827 40.1627L5.44702 38.2596C5.44702 38.2596 8.7939 35.1752 9.51577 33.6658C9.45015 33.6658 10.6314 34.0596 12.4689 34.2564ZM27.6283 33.7971C27.6283 33.7971 28.2189 35.3721 32.6814 38.2596V40.1627L35.2408 39.3752V37.4064C35.2408 37.4064 32.1564 35.2408 30.3189 33.0752L27.6283 33.7971Z" fill="#F9F3D9"/>
<path d="M23.8875 31.6967L22.4438 31.6311L22.3125 34.3217L28.1531 38.0623L41.8687 34.3217L41.9344 31.9592L37.1437 28.6123L23.8875 31.6967Z" fill="#699635"/>
<path d="M22.7063 30.0562C22.7063 30.0562 24.15 32.8125 28.4157 35.3062C28.4157 35.3062 35.2407 35.3063 42 31.1063C42 31.1063 38.2594 28.9406 37.3407 26.25C37.3407 26.25 34.5188 29.925 22.7063 30.0562Z" fill="#83BF4F"/>
<path d="M25.6594 30.7779C25.6594 30.7779 25.9875 31.3029 24.9375 31.4998L27.6938 33.6654C27.6938 33.6654 29.2688 33.2717 29.7938 34.1904C29.7938 34.1904 36.3563 33.0092 39.375 31.4342C39.375 31.4342 38.3906 30.9748 39.375 30.3842C39.375 30.3842 38.1937 29.3998 37.7344 28.7436C37.7344 28.7436 36.6188 29.0717 36.0281 28.2842C36.0281 28.3498 33.6656 30.4498 25.6594 30.7779V30.7779Z" stroke="#699635" stroke-width="0.492188" stroke-miterlimit="10"/>
<path d="M30.7123 32.4187C30.4498 32.7468 29.5967 32.878 28.8748 32.6812C28.153 32.4843 27.8248 32.0249 28.0873 31.6968C28.3498 31.3687 29.203 31.2374 29.9248 31.4343C30.6467 31.6312 30.9748 32.0249 30.7123 32.4187Z" fill="#699635"/>
<path d="M29.4001 29.5314C29.4001 29.5314 30.9751 31.6314 34.322 34.4533L34.2564 36.4221L36.5533 35.7658L36.6189 33.6658C36.6189 33.6658 33.2064 30.3846 32.3533 28.8096C32.4189 28.8096 31.3033 29.2689 29.4001 29.5314Z" fill="#F9F3D9"/>
<path d="M30.1875 1.3125C30.1875 5.31562 25.0031 11.8125 21 11.8125C16.9969 11.8125 11.8125 5.97187 11.8125 1.96875C11.8125 -2.03437 12.4031 1.96875 16.4062 1.96875C16.9969 1.96875 19.7531 0 21 0C21.8531 0 24.2812 1.96875 25.5938 1.96875C29.0719 1.96875 30.1875 -1.70625 30.1875 1.3125Z" fill="#DBB471"/>
<path d="M19.8188 8.72827C19.425 8.99077 17.5219 8.79389 16.9313 9.25327C16.1438 9.84389 17.2594 11.222 16.4719 12.0751C14.8969 13.6501 13.65 15.422 14.0438 16.4064C14.7 18.1126 15.9469 13.2564 17.0625 15.0939C18.1782 16.9314 17.9813 13.847 19.6875 15.422C21.3938 16.997 19.95 12.6001 21.5907 14.5033C23.2313 16.4064 23.2969 18.572 24.4782 18.572C25.8563 18.572 23.0344 13.3876 24.8719 14.6345C26.7094 15.8814 28.7438 15.422 26.9063 13.5189C26.3157 12.9283 25.5282 11.8783 24.6094 10.9595C24.2813 10.6314 24.5438 8.92514 24.2157 8.66264C23.8219 8.33452 22.8375 9.38452 22.4438 9.18764C21.6563 8.79389 21.9188 9.51577 20.7375 9.71264C19.95 9.97514 20.6063 8.20327 19.8188 8.72827Z" fill="#89664C"/>
<path d="M12.2717 12.6001C14.8311 10.1719 19.4905 11.5501 22.2467 12.7313C24.9374 13.9126 26.578 10.1719 24.8717 8.26882C23.8874 7.1532 22.3124 8.4657 21.7217 9.2532C21.0655 10.0407 20.5405 10.8938 19.8186 11.6813C18.7686 12.8626 16.2092 11.8782 16.9967 10.2376C17.8499 8.53132 21.4592 10.5001 22.6405 10.8282C24.9374 11.4844 27.3655 11.7469 29.6624 10.8938C30.4499 10.6313 30.1217 9.31882 29.3342 9.64695C26.7749 10.5657 24.2155 9.97507 21.7874 9.18757C20.5405 8.79382 18.5717 7.74382 17.2592 8.33445C13.5186 10.1063 16.9967 15.1594 20.1467 13.1907C20.8686 12.7313 21.328 12.0094 21.853 11.3532C22.1811 10.9594 23.8217 8.4657 24.2155 9.71257C24.4124 10.3688 24.2155 11.5501 23.4936 11.7469C23.0342 11.9438 22.1155 11.2876 21.6561 11.1563C20.803 10.8282 19.9499 10.5657 19.0311 10.3688C16.603 9.84382 13.3217 9.97507 11.4186 11.7469C10.7624 12.2719 11.6811 13.1907 12.2717 12.6001Z" fill="#E8E8E8"/>
<path d="M29.4 0.328125C28.7437 0.853125 27.5625 1.96875 25.5938 1.96875C24.2812 1.96875 21.8531 0 21 0C19.7531 0 16.9969 1.96875 16.4062 1.96875C14.2406 1.96875 13.0594 0.853125 12.4688 0.39375C12.4688 0.39375 13.1906 3.34688 15.4219 4.85625C17.0625 5.90625 16.8656 4.65938 17.7188 3.47813C18.5719 2.29688 19.1625 1.70625 20.6719 4.65938C21.4594 6.3 22.9688 0.196875 24.15 2.16563C26.3156 5.775 27.1031 3.80625 29.4 0.328125Z" fill="#89664C"/>
<path d="M34.3875 34.3881L34.3219 36.3568L36.6188 35.7006L36.6844 33.6006C36.6844 33.6662 35.3063 34.1912 34.3875 34.3881ZM32.6813 38.3256V40.2287L35.2407 39.4412V37.4725C35.175 37.4068 34.5188 37.8006 32.6813 38.3256ZM7.67815 38.8506L7.87503 40.6881L5.57815 40.1631L5.4469 38.26C5.38128 38.26 6.30003 38.5881 7.67815 38.8506Z" fill="#DBB471"/>
</g>
<defs>
<clipPath id="clip0_928_828">
<rect width="42" height="42" fill="white"/>
</clipPath>
</defs>
</svg>
